#!OML:ASF C:\ViconDB\ViconDB\414\Spring2016\041811\Spring2016.ASF
:FULLY-SPECIFIED
:DEGREES
274
root 10.768 18.1576 -26.8826 -182.196 2.85006 -177.875
lowerback 2.88448 1.89317 0.956513
upperback 2.12274 2.63337 1.25509
thorax 0.543311 1.35791 0.688041
lowerneck -10.5718 -3.94587 -10.124
upperneck 20.3347 -8.23286 14.9105
head 9.11606 -3.75808 5.85402
rclavicle -8.94531e-016 -1.43125e-014
rhumerus -33.0267 -14.1238 -86.0891
rradius 34.8961
rwrist 38.4947
rhand -33.3242 -14.4983
rfingers 7.12502
rthumb -6.52718 -44.3777
lclavicle -8.94531e-016 -1.43125e-014
lhumerus -44.0619 4.55377 86.0522
lradius 21.8476
lwrist -36.9194
lhand -23.3201 14.0039
lfingers 7.12502
lthumb 3.13401 43.9606
rfemur 155.108 60.167 -166.389
rtibia 34.1902
rfoot -71.2015 -45.1552
rtoes -6.36111e-015
lfemur -23.2411 10.258 -12.2201
ltibia 59.1549
lfoot -10.8066 6.0529
ltoes -1.30403e-013
275
root 10.7662 18.1562 -27.0377 -182.08 3.21384 -177.641
lowerback 2.90898 2.00873 1.28533
upperback 2.12677 2.7964 1.22956
thorax 0.549941 1.44361 0.474078
lowerneck -10.6812 -3.73995 -9.62305
upperneck 20.4386 -7.85687 14.3021
head 9.07224 -3.57831 5.59562
rclavicle -3.23646e-015 8.24956e-015
rhumerus -32.1963 -13.3494 -86.5478
rradius 34.9941
rwrist 37.6225
rhand -33.3524 -14.5237
rfingers 7.12502
rthumb -6.55444 -44.4023
lclavicle -3.23646e-015 8.24956e-015
lhumerus -44.3643 4.00292 86.3276
lradius 22.3064
lwrist -36.1191
lhand -23.668 14.0294
lfingers 7.12502
lthumb 2.79798 43.9908
rfemur 154.48 59.3176 -166.675
rtibia 34.1297
rfoot -70.3947 -45.2058
rtoes 1.74931e-014
lfemur -23.8921 9.90352 -12.2151
ltibia 57.0101
lfoot -11.9704 6.95813
ltoes 1.20861e-013
276
root 10.7661 18.156 -27.1983 -182.132 3.34387 -177.948
lowerback 2.98217 2.09602 1.00897
upperback 2.18999 2.90688 1.1124
thorax 0.566409 1.49667 0.504333
lowerneck -10.6973 -3.74439 -9.73573
upperneck 20.434 -7.81967 14.2806
head 9.07194 -3.56579 5.61283
rclavicle -2.2326e-014 -4.67144e-015
rhumerus -31.4862 -12.8826 -86.7342
rradius 35.2459
rwrist 37.2801
rhand -33.3837 -14.7584
rfingers 7.12502
rthumb -6.58459 -44.6361
lclavicle -2.2326e-014 -4.67144e-015
lhumerus -44.516 4.46839 86.0267
lradius 22.4377
lwrist -36.8161
lhand -24.0641 13.7547
lfingers 7.12502
lthumb 2.41546 43.7207
rfemur 153.44 58.7601 -167.931
rtibia 34.048
rfoot -69.7582 -45.1838
rtoes 2.06736e-014
lfemur -24.2573 9.42485 -12.8368
ltibia 54.5991
lfoot -12.9635 7.99057
ltoes -1.27222e-013
277
root 10.7697 18.1634 -27.3645 -182.106 3.38299 -177.553
lowerback 2.92845 2.14634 1.48406
upperback 2.26112 2.98851 1.13496
thorax 0.692338 1.54595 0.26546
lowerneck -10.7648 -3.80182 -9.82369
upperneck 20.4028 -7.87033 14.3157
head 9.08657 -3.58597 5.63354
rclavicle 4.10863e-014 4.96962e-016
rhumerus -30.8171 -12.7991 -86.9641
rradius 35.5385
rwrist 37.0741
rhand -33.645 -14.9077
rfingers 7.12502
rthumb -6.83691 -44.7773
lclavicle 4.10863e-014 4.96962e-016
lhumerus -44.7239 3.77124 86.3938
lradius 22.9215
lwrist -36.1547
lhand -24.1961 13.9033
lfingers 7.12502
lthumb 2.28797 43.8707
rfemur 152.453 58.5686 -168.449
rtibia 33.8529
rfoot -69.1562 -45.0452
rtoes -1.01778e-013
lfemur -24.5788 8.79813 -12.5688
ltibia 52.0204
lfoot -14.0563 8.82023
ltoes -1.59028e-014
278
root 10.7651 18.1703 -27.5257 -182.045 3.53056 -177.756
lowerback 2.85708 2.27489 1.43407
upperback 2.31824 3.15462 0.950921
thorax 0.799597 1.62939 0.106859
lowerneck -10.6874 -3.86645 -9.95802
upperneck 20.2049 -7.93052 14.4523
head 9.02431 -3.61182 5.69514
rclavicle -1.58344e-014 -4.32357e-015
rhumerus -30.0782 -12.5849 -87.2336
rradius 35.7762
rwrist 36.467
rhand -33.6688 -14.8883
rfingers 7.12502
rthumb -6.85982 -44.7572
lclavicle -1.58344e-014 -4.32357e-015
lhumerus -44.8475 3.19488 86.6724
lradius 23.3459
lwrist -35.4773
lhand -24.5208 14.1393
lfingers 7.12502
lthumb 1.97434 44.11
rfemur 151.767 58.1835 -169.395
rtibia 33.5945
rfoot -69.0024 -44.6798
rtoes 3.65764e-014
lfemur -24.8635 8.03629 -12.9374
ltibia 49.2667
lfoot -14.8434 9.71409
ltoes 2.22639e-014
279
root 10.7617 18.1738 -27.6903 -182.046 3.53897 -177.992
lowerback 2.84906 2.29253 1.17973
upperback 2.3662 3.1725 0.877816
thorax 0.84375 1.63601 0.175089
lowerneck -10.6489 -3.89439 -10.1998
upperneck 20.1114 -7.90352 14.4978
head 8.99264 -3.60901 5.75652
rclavicle -1.89808e-014 -3.18055e-015
rhumerus -29.4549 -11.9264 -87.4169
rradius 36.0828
rwrist 35.7979
rhand -33.8488 -14.8824
rfingers 7.12502
rthumb -7.03365 -44.7455
lclavicle -1.89808e-014 -3.18055e-015
lhumerus -45.0016 3.3296 86.6796
lradius 23.6391
lwrist -35.517
lhand -24.8702 14.2159
lfingers 7.12502
lthumb 1.6369 44.1894
rfemur 150.991 57.6976 -170.495
rtibia 33.1991
rfoot -68.1408 -44.5935
rtoes 1.79701e-013
lfemur -25.028 7.15977 -13.2961
ltibia 46.4317
lfoot -15.4099 10.2724
ltoes 6.44062e-014
280
root 10.7608 18.1814 -27.8549 -181.956 3.53905 -177.641
lowerback 2.75689 2.38439 1.532
upperback 2.40158 3.30329 0.95149
thorax 0.947983 1.70774 0.0577094
lowerneck -10.5733 -3.98497 -10.4389
upperneck 19.9252 -7.97148 14.6147
head 8.93967 -3.64547 5.82917
rclavicle -8.14707e-015 6.75868e-015
rhumerus -28.8458 -12.0898 -87.3205
rradius 36.3473
rwrist 36.0493
rhand -33.7386 -14.8852
rfingers 7.12502
rthumb -6.92722 -44.7519
lclavicle -8.14707e-015 6.75868e-015
lhumerus -45.12 2.75139 87.0957
lradius 23.9739
lwrist -35.0176
lhand -25.0617 14.1553
lfingers 7.12502
lthumb 1.452 44.1302
rfemur 150.462 57.0902 -170.742
rtibia 32.7496
rfoot -67.2063 -44.5381
rtoes -8.74653e-014
lfemur -25.219 6.42965 -12.947
ltibia 43.5696
lfoot -15.6417 10.4328
ltoes -3.02153e-014
281
root 10.7602 18.1877 -28.0242 -181.91 3.47904 -177.3
lowerback 2.6929 2.36172 1.8149
upperback 2.41668 3.27901 1.00078
thorax 1.01207 1.70066 -0.045109
lowerneck -10.5942 -3.9847 -10.4256
upperneck 19.8581 -7.93117 14.5535
head 8.91216 -3.62492 5.80822
rclavicle 2.91157e-014 7.03201e-015
rhumerus -28.3704 -11.2339 -87.6151
rradius 36.6861
rwrist 35.1252
rhand -34.1701 -15.0361
rfingers 7.12502
rthumb -7.34374 -44.8887
lclavicle 2.91157e-014 7.03201e-015
lhumerus -45.262 3.0496 86.8646
lradius 24.1953
lwrist -35.5015
lhand -25.153 14.0207
lfingers 7.12502
lthumb 1.36375 43.9961
rfemur 149.764 56.8324 -171.219
rtibia 32.2112
rfoot -66.4881 -44.0694
rtoes -4.6118e-014
lfemur -25.3433 5.71357 -12.5786
ltibia 40.7115
lfoot -15.5379 10.3503
ltoes 7.48424e-014
282
root 10.7547 18.1964 -28.1923 -181.856 3.53816 -177.269
lowerback 2.59731 2.40604 1.79169
upperback 2.46214 3.33572 0.990137
thorax 1.1123 1.73005 -0.0377407
lowerneck -10.5758 -3.99194 -10.575
upperneck 19.7067 -7.89059 14.6347
head 8.86106 -3.60496 5.86581
rclavicle -4.5444e-014 -3.97569e-015
rhumerus -27.7883 -11.1315 -87.6099
rradius 36.9684
rwrist 35.2478
rhand -34.1068 -14.7463
rfingers 7.12502
rthumb -7.28266 -44.601
lclavicle -4.5444e-014 -3.97569e-015
lhumerus -45.323 2.9211 86.9909
lradius 24.4447
lwrist -35.2665
lhand -25.4246 14.0623
lfingers 7.12502
lthumb 1.10151 44.0392
rfemur 149.287 56.1398 -171.844
rtibia 31.5925
rfoot -65.4369 -43.7833
rtoes 1.06549e-013
lfemur -25.4049 5.12679 -12.5386
ltibia 37.8905
lfoot -15.2302 10.1014
ltoes 8.22969e-014
